<svg xmlns="http://www.w3.org/2000/svg" viewBox="0 0 560 140" role="img" aria-label="NineCell logo">
  <defs>
    <linearGradient id="cellBlue" x1="0" y1="0" x2="1" y2="1">
      <stop offset="0" stop-color="#2457ff"/>
      <stop offset="1" stop-color="#6d5dfc"/>
    </linearGradient>
  </defs>
  <rect width="560" height="140" rx="30" fill="#ffffff"/>
  <g transform="translate(18 18)">
    <rect x="0" y="0" width="28" height="28" rx="8" fill="#06164d"/>
    <rect x="36" y="0" width="28" height="28" rx="8" fill="#06164d"/>
    <rect x="72" y="0" width="28" height="28" rx="8" fill="#06164d"/>
    <rect x="0" y="36" width="28" height="28" rx="8" fill="#06164d"/>
    <rect x="36" y="36" width="28" height="28" rx="8" fill="url(#cellBlue)"/>
    <rect x="72" y="36" width="28" height="28" rx="8" fill="#06164d"/>
    <rect x="0" y="72" width="28" height="28" rx="8" fill="#06164d"/>
    <rect x="36" y="72" width="28" height="28" rx="8" fill="#06164d"/>
    <rect x="72" y="72" width="28" height="28" rx="8" fill="#06164d"/>
    <path d="M43 50.5l7.5 7.5 16-19" fill="none" stroke="#fff" stroke-width="6" stroke-linecap="round" stroke-linejoin="round"/>
  </g>
  <text x="145" y="78" font-family="Inter, Segoe UI, Arial, sans-serif" font-size="60" font-weight="850" letter-spacing="-3" fill="#06164d">NineCell</text>
  <text x="149" y="111" font-family="Inter, Segoe UI, Arial, sans-serif" font-size="18" font-weight="650" letter-spacing=".2" fill="#64748b">Задачи, события и команды — в одном ритме</text>
</svg>